<?xml version="1.0" encoding="UTF-8"?>
<!-- Created with Inkscape (http://www.inkscape.org/) -->
<svg id="svg824" width="262.44556" height="49.071041" version="1.1" viewBox="0 0 262.44555 49.07104" xml:space="preserve" xmlns="http://www.w3.org/2000/svg"><defs id="defs828"><clipPath id="clipPath838"><path id="path836" d="m0 595h842v-595h-842z"/></clipPath><radialGradient id="radialGradient912" cx="0" cy="0" r="1" gradientTransform="matrix(17.252579,0,0,-17.252579,330.05859,215.72168)" gradientUnits="userSpaceOnUse"><stop id="stop908" stop-color="#ffffff" offset="0"/><stop id="stop910" stop-color="#ca953e" offset="1"/></radialGradient><radialGradient id="radialGradient938" cx="0" cy="0" r="1" gradientTransform="matrix(38.573914,0,0,-38.573914,328.9624,216.23145)" gradientUnits="userSpaceOnUse"><stop id="stop928" stop-color="#4dc6f4" offset="0"/><stop id="stop930" stop-color="#3b98da" offset=".219101"/><stop id="stop932" stop-color="#1c63b7" offset=".37564743"/><stop id="stop934" stop-color="#1c63b7" offset=".573029"/><stop id="stop936" stop-color="#1c63b7" offset="1"/></radialGradient></defs><g id="g830" transform="matrix(1.3333333,0,0,-1.3333333,-411.12083,305.62533)"><g id="g832"><g id="g834" clip-path="url(#clipPath838)"><g id="g840" transform="translate(477.3623,203.8516)"><path id="path842" d="m0 0 0.56 13.818c0 1.048-0.276 1.842-0.803 2.37-0.839 0.84-2.181 0.832-3.152 0.825h-14.693l1.142-1.942h13.1c0.478 0 0.651 0 0.651-0.81l-0.545-14.261h-15.783l1.151-1.907h21.065v1.907z" fill="#706d6e"/></g><g id="g844" transform="translate(444.8906,220.3613)"><path id="path846" d="m0 0c3.331 0 5.857-0.988 5.857-2.297 0-1.287-2.571-2.297-5.857-2.297s-5.86 1.01-5.86 2.297c0 1.309 2.526 2.297 5.86 2.297m-0.034-6.576c5.467 0 9.744 1.876 9.744 4.275 0 2.4-4.277 4.276-9.744 4.276-5.463 0-9.752-1.876-9.752-4.276 0-2.399 4.289-4.275 9.752-4.275" fill="#706d6e"/></g><g id="g848" transform="translate(444.874,209.2139)"><path id="path850" d="m0 0c-0.843 0-1.653-0.05-2.431-0.143v1.965h5.147v-2.002c-0.864 0.119-1.772 0.18-2.716 0.18m0.021-8.176c-3.568 0-6.251 1.326-6.251 3.084 0 1.765 2.683 3.094 6.251 3.094 3.566 0 6.25-1.329 6.25-3.094 0-1.758-2.684-3.084-6.25-3.084m-12.424 11.91 1.154-1.912h5.296v-2.779c-2.528-0.917-4.146-2.42-4.146-4.148 0-2.87 4.437-5.11 10.099-5.11 5.661 0 10.091 2.24 10.091 5.11 0 1.66-1.489 3.109-3.851 4.039v2.888h5.149v1.912z" fill="#706d6e"/></g><g id="g852" transform="translate(499.376,201.6943)"><path id="path854" d="m0 0h-8.624c-1.778 0.059-2.147 0.223-2.151 1.916h10.775zm0 6.683v-2.795h-10.775v2.789l-4.711 6e-3c-0.221 0-0.815 0-0.815-0.48 0-0.157 0.062-0.523 0.648-0.523 0.259 0 0.492-0.025 0.672-0.073 0.199-0.044 0.411-0.143 0.47-0.766-5e-3 0.032-5e-3 -1.872-5e-3 -1.872 0-3.113 0.685-4.725 4.398-4.907h13.859v8.621z" fill="#706d6e"/></g><g id="g856" transform="translate(483.2598,216.7842)"><path id="path858" d="m0 0c0.261 0 0.493-0.029 0.664-0.076 0.209-0.048 0.416-0.149 0.48-0.794 0-2.636 1.155-3.57 4.418-3.57h14.675v1.996h-13.383c-1.551 0-1.976 0.205-1.976 0.965v0.462h15.045v5.357h-19.769l1.119-2.013h14.915v-1.338l-16.02 0.01c-0.228 0-0.818 0-0.818-0.478 0-0.162 0.067-0.521 0.65-0.521" fill="#706d6e"/></g><g id="g860" transform="translate(481.5518,211.6387)"><path id="path862" d="m0 0 1.125-2.016h9.445v-2.851h3.941v2.851h9.112v2.016z" fill="#706d6e"/></g><g id="g864" transform="translate(424.6396,201.7021)"><path id="path866" d="m0 0h-8.836c-2.019 0-2.151 0.304-2.151 2.416v3.327h10.987zm-15.707 7.712c-0.217 0-0.809 0-0.809-0.48 0-0.155 0.058-0.523 0.646-0.523 0.265 0 0.496-0.024 0.67-0.068 0.211-0.05 0.421-0.153 0.477-0.819v-2.981c0-2.511 0.524-4.764 4.415-4.764h14.056v9.631z" fill="#706d6e"/></g><g id="g868" transform="translate(427.7754,213.3848)"><path id="path870" d="m0 0 0.548 4.465c0 1.043-0.273 1.841-0.802 2.367-0.846 0.836-2.178 0.83-3.149 0.823h-15.527l1.142-1.949h13.929c0.475 0 0.652 0 0.652-0.812l-0.546-4.894h-17.222l1.1-2.03h22.681v2.03z" fill="#706d6e"/></g><g id="g872" transform="translate(361.8467,214.918)"><path id="path874" d="m0 0c2.209-2.731 5.22-4.308 7.947-4.132l0.297 0.02v1.644l-0.277 0.032c-3.792 0.468-5.993 3.559-6.039 8.49l-3e-3 0.32h-5.071c-0.222 0-0.815 0.01-0.815-0.469 0-0.158 0.063-0.522 0.649-0.522 0.263 0 0.495-0.026 0.671-0.073 0.207-0.05 0.416-0.15 0.473-0.794-0.025-3.831-2.395-6.7-5.762-6.948l-0.288-0.022v-1.678h0.307c2.436 0 5.514 0.477 7.911 4.132" fill="#706d6e"/></g><g id="g876" transform="translate(363.3257,201.6074)"><path id="path878" d="m0 0c-1.468 0-2.147 0.769-2.147 2.426v4.514h-4.729c-0.225 0-0.819 7e-3 -0.819-0.475 0-0.157 0.065-0.525 0.651-0.525 0.264 0 0.493-0.023 0.672-0.071 0.216-0.05 0.435-0.161 0.483-0.882-1e-3 0.018-1e-3 -1.579-1e-3 -1.579 0-0.548 0.123-5.359 4.422-5.359h13.969v1.951z" fill="#706d6e"/></g><g id="g880" transform="translate(387.75,211.6162)"><path id="path882" d="m0 0c-1.949 0-3.528 1.484-3.528 3.313 0 1.824 1.579 3.309 3.528 3.309 1.944 0 3.528-1.485 3.528-3.309 0-1.829-1.584-3.313-3.528-3.313m-7.2 3.154c0-2.854 3.223-5.176 7.18-5.176 3.963 0 7.182 2.322 7.182 5.176 0 1.505-0.897 2.866-2.324 3.811h3.082v1.931h-5.861v2.122h-4.731c-0.224 0-0.816 8e-3 -0.816-0.474 0-0.154 0.06-0.523 0.644-0.523 0.267 0 0.501-0.025 0.68-0.072 0.206-0.046 0.422-0.153 0.472-0.838v-0.215h-6.934l1.145-1.931h2.607c-1.429-0.945-2.326-2.306-2.326-3.811" fill="#706d6e"/></g><g id="g884" transform="translate(389.2964,201.5977)"><path id="path886" d="m0 0c-1.936 0-2.151 0.775-2.151 2.422v4.51h-4.726c-0.221 0-0.813 6e-3 -0.813-0.471 0-0.159 0.062-0.524 0.649-0.524 0.265 0 0.496-0.024 0.669-0.076 0.213-0.048 0.435-0.153 0.48-0.852v-1.591c0-3.506 1.529-5.359 4.421-5.359h13.999v1.941z" fill="#706d6e"/></g><g id="g888" transform="translate(371.019,221.4834)"><path id="path890" d="m0 0c-0.224 0-0.818 4e-3 -0.818-0.478 0-0.157 0.063-0.521 0.651-0.521 0.261 0 0.498-0.027 0.668-0.072 0.2-0.046 0.404-0.142 0.47-0.73v-12.439h3.734v14.24z" fill="#706d6e"/></g><g id="g892" transform="translate(405.042,215.7314)"><path id="path894" d="m0 0v1.94h-3.13v3.805h-4.71c-0.224 0-0.812 0.011-0.812-0.471 0-0.157 0.058-0.521 0.649-0.521 0.264 0 0.5-0.027 0.668-0.072 0.177-0.041 0.36-0.12 0.44-0.56v-12.609h3.765v8.488z" fill="#706d6e"/></g></g></g><g id="g896"><g id="g898"><g id="g904"><g id="g906"><path id="path914" d="m325.921 228.953c-10.015-0.448-17.769-8.938-17.317-18.957 0.454-10.012 8.94-17.772 18.959-17.32 10.018 0.456 17.771 8.943 17.32 18.963-0.44 9.734-8.471 17.333-18.118 17.333-0.28 0-0.561-6e-3 -0.844-0.019" fill="url(#radialGradient912)"/></g></g></g></g><g id="g916"><g id="g918"><g id="g924"><g id="g926"><path id="path940" d="m325.908 229.199c-10.15-0.455-18.01-9.06-17.548-19.214 0.46-10.149 9.059-18.011 19.211-17.55 10.155 0.459 18.013 9.061 17.556 19.213-0.447 9.868-8.59 17.57-18.369 17.571-0.283 0-0.565-7e-3 -0.85-0.02m2.191-34.569c-0.015 0.417 0.595 0.523 0.595 0.523 5.438 1.069 3.851 4.64 1.923 6.46-0.808 0.767-8.383 7.305-8.383 7.305-7.227 6.223-6.647 11.076-6.647 11.076 0.348 5.975 5.58 7.456 9.537 7.114 0.465-0.042 0.721-0.32 0.64-0.709-0.086-0.418-0.7-0.448-0.7-0.448-1.261-0.079-2.386-0.206-3.243-0.782-3.191-2.145-2.245-5.797 2.003-9.858 0.537-0.513 1.104-1.051 1.689-1.598 0 0 0.855-0.749 2.551-2.369 3.275-3.012 5.065-4.641 5.065-4.641 5.766-4.8 3.798-9.187 1.59-10.715-1.675-1.161-3.54-1.71-5.98-1.84-0.021-3e-3 -0.045-5e-3 -0.07-5e-3 -0.224 0-0.553 0.139-0.57 0.487m1.351 17.727c-1.871 0.394-2.251 2.09-2.251 2.09-0.153 0.591-0.189 1.348-0.066 2.306 0.259 2.01 0.8 2.954 1.415 4.509 0.829 2.09-1.19 3.316-0.856 4.086 0.454 1.038 1.897-0.283 3.509-0.376 1.387-0.083 2.217-0.014 3.295-0.155 1.434-0.191 3.146-0.677 3.909-1.574 0.7-0.818-0.369-1.817-1.655-1.193-0.939 0.461-2.12 0.18-1.429-0.803 0.838-0.923 1.24-0.955 2.09-1.176 2.34-0.62 2.392-2.859 0.805-4.025-1.806-1.323-3.636-0.776-4.367 1.819-0.367 1.292-1.277 1.951-2.217 1.578-0.927-0.359-0.376-2.064 0.328-3.641 1.23-3.136-1.258-3.459-2.204-3.459-0.143 0-0.251 8e-3 -0.306 0.014m-6.859-17.138c-2.032 0.198-4.459 0.838-6.573 2.666-1.944 1.685-3.147 3.995-3.734 6.021-0.6 2.082-0.846 4.514 0.137 4.323 0.306-0.061 0.831-1.396 1.4-2.368 0.592-1.008 1.074-1.561 1.523-1.9 0.207-0.154 0.896 1.391 1.91 2.268 0.585 0.484 1.225 0.648 1.332-0.797 0.124-1.769-0.196-3.882 0.322-3.882 0.484 0 1.573 0.367 3.972 0.567 0.899 0.082 1.412-0.087 0.554-1.304-0.432-0.6-1.003-1.457-2.362-2.432 2.035-1.903 4.48-1.677 4.524-2.484 0.026-0.468-0.882-0.725-2.079-0.725-0.295 0-0.606 0.015-0.926 0.047" fill="url(#radialGradient938)"/></g></g></g></g></g></svg>
