<?xml version="1.0" encoding="UTF-8" standalone="no"?>
<svg
   xmlns:dc="http://purl.org/dc/elements/1.1/"
   xmlns:cc="http://creativecommons.org/ns#"
   xmlns:rdf="http://www.w3.org/1999/02/22-rdf-syntax-ns#"
   xmlns:svg="http://www.w3.org/2000/svg"
   xmlns="http://www.w3.org/2000/svg"
   version="1.1"
   id="svg4702"
   viewBox="0 0 222.2436 72.978969"
   height="20.596287mm"
   width="62.722084mm">
  <defs
     id="defs4704" />
  <metadata
     id="metadata4707">
    <rdf:RDF>
      <cc:Work
         rdf:about="">
        <dc:format>image/svg+xml</dc:format>
        <dc:type
           rdf:resource="http://purl.org/dc/dcmitype/StillImage" />
        <dc:title></dc:title>
      </cc:Work>
    </rdf:RDF>
  </metadata>
  <g
     transform="translate(-216.02105,-654.63544)"
     id="layer1">
    <g
       transform="matrix(1.5316503,0,0,1.5316503,-114.84766,-386.83642)"
       id="g5314">
      <g
         id="g220"
         transform="matrix(1.25,0,0,-1.25,224.98105,714.93566)">
        <path
           d="m 0,0 c -1.356,0.636 -2.468,1.143 -2.468,2.181 0,0.79 0.631,1.369 1.882,1.369 0.462,0 0.839,-0.055 1.227,-0.129 0.203,-0.033 0.421,-0.064 0.601,-0.064 1.092,0 1.709,0.651 2.117,1.888 l 0.17,0.506 c -0.173,0.072 -1.957,0.855 -4.288,0.855 -3.702,0 -5.656,-2.375 -5.656,-4.837 0,-1.245 0.391,-2.147 0.999,-2.856 0.785,-0.913 1.903,-1.51 2.951,-2.022 1.527,-0.745 2.904,-1.298 2.904,-2.408 0,-0.987 -1.017,-1.546 -2.377,-1.546 -1.864,0 -3.494,1.064 -3.7,1.192 l -1.53,-2.868 c 0.27,-0.153 2.241,-1.404 5.484,-1.404 3.455,0.003 6.075,1.984 6.075,5.032 C 4.391,-2.078 1.963,-0.952 0,0"
           style="fill:#e41937;fill-opacity:1;fill-rule:nonzero;stroke:none"
           id="path222" />
      </g>
      <g
         id="g224"
         transform="matrix(1.25,0,0,-1.25,241.88017,716.7039)">
        <path
           d="m 0,0 6.267,7.685 -4.467,0 -5,-6.634 -0.076,0 0,6.634 -3.682,0 0.002,-16.281 0.219,0 c 1.592,0 3.486,0.733 3.486,3.394 l 0,3.738 0.075,0 5.097,-6.932 4.687,0 L 0,0 Z"
           style="fill:#e41937;fill-opacity:1;fill-rule:nonzero;stroke:none"
           id="path226" />
      </g>
      <g
         id="g228"
         transform="matrix(1.25,0,0,-1.25,249.97555,685.29703)">
        <path
           d="m 0,0 c -1.298,-0.242 -3.219,-1.42 -3.214,-3.501 0.006,-1.89 1.549,-3.034 1.554,-5.51 0.008,-1.863 -1.016,-3.117 -2.127,-3.811 0.447,0.038 0.939,0.063 1.479,0.063 1.137,0.004 1.819,-0.104 1.862,-0.111 l 5.817,7.137 C 3.756,-3.316 1.867,-1.438 0,0"
           style="fill:#e41937;fill-opacity:1;fill-rule:nonzero;stroke:none"
           id="path230" />
      </g>
      <g
         id="g232"
         transform="matrix(1.25,0,0,-1.25,256.0788,709.38578)">
        <path
           d="m 0,0 c 0.733,1.139 0.826,2.956 0.89,4.806 0.068,1.727 0.426,3.025 2.734,3.031 0.511,0.005 1,-0.067 1.882,-0.064 3.381,0.015 5.591,1.18 6.963,1.943 C 9.662,11.504 5.568,13.332 0.488,13.538 0.153,12.604 -2.422,5.444 -2.616,4.866 -2.585,4.832 -2.133,4.325 -1.571,3.34 -0.742,1.985 -0.293,0.838 0,0"
           style="fill:#e41937;fill-opacity:1;fill-rule:nonzero;stroke:none"
           id="path234" />
      </g>
      <g
         id="g236"
         transform="matrix(1.25,0,0,-1.25,240.72593,702.0734)">
        <path
           d="m 0,0 c -0.294,0 -0.439,0.194 -0.48,0.532 -0.038,0.335 -1.492,13.642 -1.708,15.657 -0.031,0.293 -0.102,0.833 -0.106,1.025 -0.002,0.309 0.203,0.471 0.441,0.471 0.69,0.004 4.445,-0.876 8.43,-3.668 C 5.429,13.693 3.351,12.499 3.358,10.025 3.367,7.836 4.933,6.633 4.945,4.435 4.955,0.864 0.85,0.002 0,0"
           style="fill:#f46f19;fill-opacity:1;fill-rule:nonzero;stroke:none"
           id="path238" />
      </g>
      <g
         id="g240"
         transform="matrix(1.25,0,0,-1.25,256.49843,710.57353)">
        <path
           d="m 0,0 c 0.062,-0.163 0.122,-0.305 0.179,-0.4 0.094,-0.155 0.212,-0.227 0.357,-0.225 0.096,0.002 0.209,0.032 0.332,0.087 0.307,0.142 12.452,5.794 14.284,6.642 0.265,0.125 0.767,0.351 0.931,0.448 0.175,0.099 0.253,0.24 0.253,0.386 -10e-4,0.081 -0.025,0.163 -0.07,0.238 -0.228,0.371 -1.403,1.616 -3.368,2.98 C 11.337,9.298 8.903,7.968 5.279,7.955 4.392,7.952 4.192,8.013 3.584,8.013 1.818,8.006 1.375,7.248 1.311,5.697 1.301,5.404 1.296,5.01 1.278,4.579 1.222,3.191 1.059,1.28 0,0"
           style="fill:#f46f19;fill-opacity:1;fill-rule:nonzero;stroke:none"
           id="path242" />
      </g>
      <g
         id="g244"
         transform="matrix(1.25,0,0,-1.25,302.55592,716.2669)">
        <path
           d="m 0,0 c -0.424,0 -0.775,-0.124 -0.88,-0.157 l -0.024,-0.008 0,-0.003 3.494,-8.577 1.764,0 3.479,8.588 -2.208,0 -2.116,-5.811 -0.037,0 -1.761,4.751 -0.039,0.108 C 1.521,-0.721 1.307,-0.356 0.858,-0.157 0.637,-0.059 0.357,0 0,0"
           style="fill:#f46f19;fill-opacity:1;fill-rule:nonzero;stroke:none"
           id="path246" />
      </g>
      <g
         id="g248"
         transform="matrix(1.25,0,0,-1.25,328.74105,713.40616)">
        <path
           d="m 0,0 -0.203,0 c -0.972,0 -1.975,-0.412 -1.975,-2.539 l 0,-0.024 -1.611,0 0,-1.639 1.611,0 0,-4.995 c 0,-1.41 0.835,-2.148 2.023,-2.148 0.959,0 2.196,0.292 2.196,2.194 C 1.963,-9.199 1.501,-9.5 0.991,-9.5 0.28,-9.5 0,-9.064 0,-8.443 l 0,4.241 1.821,0 0.639,1.639 -2.46,0 L 0,0 Z"
           style="fill:#f46f19;fill-opacity:1;fill-rule:nonzero;stroke:none"
           id="path250" />
      </g>
      <g
         id="g252"
         transform="matrix(1.25,0,0,-1.25,295.4733,725.36965)">
        <path
           d="M 0,0 C -1.353,0 -2.103,1.189 -2.103,2.784 -2.103,4.439 -1.313,5.58 0,5.58 1.353,5.58 2.102,4.409 2.102,2.784 2.102,1.148 1.34,0 0,0 m 0,7.253 c -2.685,0 -4.27,-1.777 -4.27,-4.469 0,-2.701 1.607,-4.458 4.27,-4.458 2.804,0 4.266,1.915 4.266,4.458 0,2.692 -1.578,4.469 -4.266,4.469"
           style="fill:#f46f19;fill-opacity:1;fill-rule:nonzero;stroke:none"
           id="path254" />
      </g>
      <g
         id="g256"
         transform="matrix(1.25,0,0,-1.25,343.94142,725.36965)">
        <path
           d="M 0,0 C -1.353,0 -2.104,1.189 -2.104,2.784 -2.104,4.439 -1.314,5.58 0,5.58 1.352,5.58 2.101,4.409 2.101,2.784 2.101,1.148 1.34,0 0,0 m 0,7.253 c -2.685,0 -4.271,-1.777 -4.271,-4.469 0,-2.701 1.608,-4.458 4.271,-4.458 2.803,0 4.265,1.915 4.265,4.458 0,2.692 -1.579,4.469 -4.265,4.469"
           style="fill:#f46f19;fill-opacity:1;fill-rule:nonzero;stroke:none"
           id="path258" />
      </g>
      <g
         id="g260"
         transform="matrix(1.25,0,0,-1.25,272.0703,716.31203)">
        <path
           d="m 0,0 c -1.351,0 -2.314,-0.852 -2.598,-1.135 -0.092,0.351 -0.505,0.945 -1.448,0.945 -0.333,0 -0.769,-0.099 -0.809,-0.11 0.066,-0.326 0.244,-1.096 0.244,-2.652 l 0,-5.758 2.162,0 0,5.984 c 0.118,0.11 0.886,0.842 1.739,0.842 1.111,0 1.688,-0.805 1.688,-1.854 l 0,-4.972 2.159,0 0,5.513 C 3.137,-0.58 1.124,0 0,0"
           style="fill:#f46f19;fill-opacity:1;fill-rule:nonzero;stroke:none"
           id="path262" />
      </g>
      <g
         id="g264"
         transform="matrix(1.25,0,0,-1.25,284.27517,716.31203)">
        <path
           d="m 0,0 c -1.351,0 -2.314,-0.852 -2.598,-1.135 -0.092,0.351 -0.505,0.945 -1.448,0.945 -0.333,0 -0.769,-0.099 -0.809,-0.11 0.066,-0.326 0.244,-1.096 0.244,-2.652 l 0,-5.758 2.163,0 0,5.984 c 0.117,0.11 0.885,0.842 1.738,0.842 1.111,0 1.689,-0.805 1.689,-1.854 l 0,-4.972 2.158,0 0,5.513 C 3.137,-0.58 1.124,0 0,0"
           style="fill:#f46f19;fill-opacity:1;fill-rule:nonzero;stroke:none"
           id="path266" />
      </g>
      <g
         id="g268"
         transform="matrix(1.25,0,0,-1.25,357.20055,716.31203)">
        <path
           d="m 0,0 c -1.351,0 -2.313,-0.852 -2.598,-1.135 -0.092,0.351 -0.505,0.945 -1.447,0.945 -0.333,0 -0.77,-0.099 -0.809,-0.11 0.065,-0.326 0.244,-1.096 0.244,-2.652 l 0,-5.758 2.162,0 0,5.984 c 0.118,0.11 0.886,0.842 1.738,0.842 1.111,0 1.689,-0.805 1.689,-1.854 l 0,-4.972 2.158,0 0,5.513 C 3.137,-0.58 1.124,0 0,0"
           style="fill:#f46f19;fill-opacity:1;fill-rule:nonzero;stroke:none"
           id="path270" />
      </g>
      <path
         d="m 263.41405,716.48153 -2.67875,0 0,10.7175 2.67875,0 0,-10.7175 z m -1.3375,-4.87125 c -0.91875,0 -1.665,0.72625 -1.665,1.6225 0,0.8925 0.74625,1.615 1.665,1.615 0.92125,0 1.66625,-0.7225 1.66625,-1.615 0,-0.89625 -0.745,-1.6225 -1.66625,-1.6225"
         style="fill:#f46f19;fill-opacity:1;fill-rule:nonzero;stroke:none"
         id="path272" />
      <path
         d="m 336.69405,716.48153 -2.6775,0 0,10.7175 2.6775,0 0,-10.7175 z m -1.3375,-4.87125 c -0.92,0 -1.66375,0.72625 -1.66375,1.6225 0,0.8925 0.74375,1.615 1.66375,1.615 0.92125,0 1.66625,-0.7225 1.66625,-1.615 0,-0.89625 -0.745,-1.6225 -1.66625,-1.6225"
         style="fill:#f46f19;fill-opacity:1;fill-rule:nonzero;stroke:none"
         id="path274" />
      <g
         id="g276"
         transform="matrix(1.25,0,0,-1.25,317.77305,725.28966)">
        <path
           d="m 0,0 c -0.753,0 -1.325,0.454 -1.325,1.21 0,0.638 0.617,1.189 1.796,1.189 l 1.124,0 0,-1.792 C 1.457,0.528 0.872,0 0,0 m 0.159,7.193 c -1.863,0 -3.191,-0.892 -3.345,-0.997 0,0 0.09,-0.156 0.15,-0.265 0.185,-0.316 0.35,-0.783 0.897,-0.783 0.544,0 1.007,0.416 2.043,0.416 1.136,0 1.691,-0.55 1.691,-1.393 l 0,-0.305 -0.717,0 c -2.916,0 -4.451,-1.126 -4.451,-2.936 0,-1.597 1.22,-2.668 2.902,-2.668 1.606,0 2.311,0.936 2.449,1.054 0.154,-0.394 0.52,-0.856 1.284,-0.856 0.401,0 0.921,0.104 1.005,0.138 -0.062,0.247 -0.262,0.916 -0.262,2.417 l 0,2.997 c 0,2.225 -1.432,3.181 -3.646,3.181"
           style="fill:#f46f19;fill-opacity:1;fill-rule:nonzero;stroke:none"
           id="path278" />
      </g>
    </g>
  </g>
</svg>
